<?xml version="1.0" encoding="UTF-8" standalone="no"?>
<!DOCTYPE svg PUBLIC "-//W3C//DTD SVG 1.0//EN" "http://www.w3.org/TR/2001/PR-SVG-20010719/DTD/svg10.dtd">
<svg width="23cm" height="16cm" viewBox="5 2 453 313" xmlns="http://www.w3.org/2000/svg" xmlns:xlink="http://www.w3.org/1999/xlink">
  <g>
    <ellipse style="fill: #fffb6f" cx="292" cy="138" rx="20" ry="20"/>
    <ellipse style="fill: none; fill-opacity:0; stroke-width: 2; stroke: #000000" cx="292" cy="138" rx="20" ry="20"/>
    <ellipse style="fill: none; fill-opacity:0; stroke-width: 2; stroke: #000000" cx="292" cy="138" rx="20" ry="20"/>
  </g>
  <g>
    <ellipse style="fill: #fffb6f" cx="213.9" cy="83" rx="20" ry="20"/>
    <ellipse style="fill: none; fill-opacity:0; stroke-width: 2; stroke: #000000" cx="213.9" cy="83" rx="20" ry="20"/>
    <ellipse style="fill: none; fill-opacity:0; stroke-width: 2; stroke: #000000" cx="213.9" cy="83" rx="20" ry="20"/>
  </g>
  <g>
    <ellipse style="fill: #fffb6f" cx="138.8" cy="24" rx="20" ry="20"/>
    <ellipse style="fill: none; fill-opacity:0; stroke-width: 2; stroke: #000000" cx="138.8" cy="24" rx="20" ry="20"/>
    <ellipse style="fill: none; fill-opacity:0; stroke-width: 2; stroke: #000000" cx="138.8" cy="24" rx="20" ry="20"/>
  </g>
  <g>
    <rect style="fill: #ffffff" x="179.825" y="105" width="68.15" height="14.9"/>
    <text font-size="12.8" style="fill: #000000;text-anchor:middle;font-family:sans-serif;font-style:normal;font-weight:700" x="213.9" y="116.9">
      <tspan x="213.9" y="116.9">Authority</tspan>
    </text>
  </g>
  <g>
    <rect style="fill: #ffffff" x="111.4" y="47" width="53.15" height="14.9"/>
    <text font-size="12.8" style="fill: #000000;text-anchor:middle;font-family:sans-serif;font-style:normal;font-weight:700" x="137.975" y="58.9">
      <tspan x="137.975" y="58.9">Society</tspan>
    </text>
  </g>
  <line style="fill: none; fill-opacity:0; stroke-width: 2; stroke: #000000" x1="272" y1="125" x2="234" y2="96"/>
  <line style="fill: none; fill-opacity:0; stroke-width: 2; stroke: #000000" x1="196.302" y1="66.4016" x2="158.302" y2="37.4016"/>
  <g>
    <ellipse style="fill: #fffb6f" cx="422" cy="259" rx="20" ry="20"/>
    <ellipse style="fill: none; fill-opacity:0; stroke-width: 2; stroke: #000000" cx="422" cy="259" rx="20" ry="20"/>
    <ellipse style="fill: none; fill-opacity:0; stroke-width: 2; stroke: #000000" cx="422" cy="259" rx="20" ry="20"/>
  </g>
  <g>
    <rect style="fill: #ffffff" x="389.775" y="284.1" width="68.45" height="30.9"/>
    <text font-size="12.8" style="fill: #000000;text-anchor:middle;font-family:sans-serif;font-style:normal;font-weight:700" x="424" y="296">
      <tspan x="424" y="296">Freedom/</tspan>
      <tspan x="424" y="312">liberty</tspan>
    </text>
  </g>
  <g>
    <ellipse style="fill: #fffb6f" cx="153.302" cy="261.402" rx="20" ry="20"/>
    <ellipse style="fill: none; fill-opacity:0; stroke-width: 2; stroke: #000000" cx="153.302" cy="261.402" rx="20" ry="20"/>
    <ellipse style="fill: none; fill-opacity:0; stroke-width: 2; stroke: #000000" cx="153.302" cy="261.402" rx="20" ry="20"/>
  </g>
  <g>
    <rect style="fill: #ffffff" x="113.893" y="283.156" width="79.65" height="14.9"/>
    <text font-size="12.8" style="fill: #000000;text-anchor:middle;font-family:sans-serif;font-style:normal;font-weight:700" x="153.718" y="295.056">
      <tspan x="153.718" y="295.056">Permission</tspan>
    </text>
  </g>
  <line style="fill: none; fill-opacity:0; stroke-width: 2; stroke: #000000" x1="117.725" y1="38.399" x2="82.725" y2="64.399"/>
  <g>
    <ellipse style="fill: #fffb6f" cx="62.0266" cy="80.8006" rx="20" ry="20"/>
    <ellipse style="fill: none; fill-opacity:0; stroke-width: 2; stroke: #000000" cx="62.0266" cy="80.8006" rx="20" ry="20"/>
    <ellipse style="fill: none; fill-opacity:0; stroke-width: 2; stroke: #000000" cx="62.0266" cy="80.8006" rx="20" ry="20"/>
  </g>
  <g>
    <rect style="fill: #ffffff" x="5.65" y="106.499" width="112.15" height="14.9"/>
    <text font-size="12.8" style="fill: #000000;text-anchor:middle;font-family:sans-serif;font-style:normal;font-weight:700" x="61.725" y="118.399">
      <tspan x="61.725" y="118.399">Communication</tspan>
    </text>
  </g>
  <g>
    <ellipse style="fill: #d8e5e5" cx="247.011" cy="213.785" rx="13.9841" ry="13.9841"/>
    <ellipse style="fill: none; fill-opacity:0; stroke-width: 2; stroke: #000000" cx="247.011" cy="213.785" rx="13.9841" ry="13.9841"/>
    <ellipse style="fill: none; fill-opacity:0; stroke-width: 2; stroke: #000000" cx="247.011" cy="213.785" rx="13.9841" ry="13.9841"/>
  </g>
  <g>
    <rect style="fill: #ffffff" x="213.9" y="231.899" width="63.65" height="41.3722"/>
    <text font-size="11.2889" style="fill: #000000;text-anchor:middle;font-family:sans-serif;font-style:normal;font-weight:700" x="245.725" y="242.399">
      <tspan x="245.725" y="242.399">Breach</tspan>
      <tspan x="245.725" y="256.51">of rule</tspan>
      <tspan x="245.725" y="270.621">or custom</tspan>
    </text>
  </g>
  <g>
    <rect style="fill: #ffffff" x="291.5" y="232.098" width="85.5" height="13.15"/>
    <text font-size="11.2889" style="fill: #000000;text-anchor:middle;font-family:sans-serif;font-style:normal;font-weight:700" x="334.25" y="242.598">
      <tspan x="334.25" y="242.598">Disobedience</tspan>
    </text>
  </g>
  <line style="fill: none; fill-opacity:0; stroke-width: 2; stroke: #000000" x1="334.22" y1="200.178" x2="305.593" y2="161.806"/>
  <line style="fill: none; fill-opacity:0; stroke-width: 2; stroke: #000000" x1="247.011" y1="199.801" x2="276.718" y2="161.056"/>
  <g>
    <rect style="fill: #ffffff" x="252.275" y="159.6" width="74.95" height="30.9"/>
    <text font-size="12.8" style="fill: #000000;text-anchor:middle;font-family:sans-serif;font-style:normal;font-weight:700" x="289.75" y="171.5">
      <tspan x="289.75" y="171.5">Lack of </tspan>
      <tspan x="289.75" y="187.5">subjection</tspan>
    </text>
  </g>
  <line style="fill: none; fill-opacity:0; stroke-width: 2; stroke: #000000" x1="269.718" y1="153.056" x2="161.718" y2="237.056"/>
  <g>
    <ellipse style="fill: #d8e5e5" cx="334.22" cy="214.162" rx="13.9841" ry="13.9841"/>
    <ellipse style="fill: none; fill-opacity:0; stroke-width: 2; stroke: #000000" cx="334.22" cy="214.162" rx="13.9841" ry="13.9841"/>
    <ellipse style="fill: none; fill-opacity:0; stroke-width: 2; stroke: #000000" cx="334.22" cy="214.162" rx="13.9841" ry="13.9841"/>
  </g>
  <line style="fill: none; fill-opacity:0; stroke-width: 2; stroke: #000000" x1="410.718" y1="233.056" x2="313.343" y2="154.806"/>
  <g>
    <ellipse style="fill: #d8e5e5" cx="334.102" cy="277.54" rx="13.9841" ry="13.9841"/>
    <ellipse style="fill: none; fill-opacity:0; stroke-width: 2; stroke: #000000" cx="334.102" cy="277.54" rx="13.9841" ry="13.9841"/>
    <ellipse style="fill: none; fill-opacity:0; stroke-width: 2; stroke: #000000" cx="334.102" cy="277.54" rx="13.9841" ry="13.9841"/>
  </g>
  <g>
    <rect style="fill: #ffffff" x="304.693" y="292.056" width="57.35" height="13.15"/>
    <text font-size="11.2889" style="fill: #000000;text-anchor:middle;font-family:sans-serif;font-style:normal;font-weight:700" x="333.368" y="302.556">
      <tspan x="333.368" y="302.556">An act of</tspan>
    </text>
  </g>
  <line style="fill: none; fill-opacity:0; stroke-width: 2; stroke: #000000" x1="334.102" y1="263.556" x2="334.381" y2="245.306"/>
</svg>
