<?xml version="1.0" encoding="utf-8"?>
<!-- Generator: Adobe Illustrator 27.1.1, SVG Export Plug-In . SVG Version: 6.00 Build 0)  -->
<svg version="1.1" id="Layer_1" xmlns="http://www.w3.org/2000/svg" xmlns:xlink="http://www.w3.org/1999/xlink" x="0px" y="0px"
	 viewBox="0 0 595.28 841.89" style="enable-background:new 0 0 595.28 841.89;" xml:space="preserve">
<style type="text/css">
	.st0{fill-rule:evenodd;clip-rule:evenodd;stroke:#000000;stroke-miterlimit:10;}
	.st1{fill-rule:evenodd;clip-rule:evenodd;fill:#F6F6F6;stroke:#000000;}
	.st2{fill:none;stroke:#000000;stroke-width:0.25;}
	.st3{fill:none;stroke:#000000;stroke-width:0.25;stroke-miterlimit:10;}
	.st4{fill:none;stroke:#000000;stroke-width:4;}
	.st5{stroke:#000000;stroke-width:0.25;stroke-miterlimit:10;}
	.st6{fill:url(#SVGID_1_);stroke:#000000;stroke-width:0.25;stroke-miterlimit:10;}
	
		.st7{fill:url(#SVGID_00000031194547846491368220000010356939323529033873_);stroke:#000000;stroke-width:0.25;stroke-miterlimit:10;}
	.st8{fill:#FFFFFF;stroke:#000000;stroke-width:0.25;stroke-miterlimit:10;}
	
		.st9{fill:url(#SVGID_00000174594919839206220390000013085600370643397519_);stroke:#000000;stroke-width:0.25;stroke-miterlimit:10;}
	.st10{fill:#FFFFFF;}
</style>
<g id="g2198_00000123405589588895330240000004153786188887015091_" transform="translate(-256.9943,-227.9440)">
	<path id="path14684_00000163032227017938526080000015760090602789774499_" class="st0" d="M460.21,765.46
		c18.73,31.47,35.55,57.59,54.28,89.06c38.48-18.47,54.79-24.72,88.29-36.31c14.65,4.2,30.07-3.44,36.31-9.17
		c27.65-3.82,59.88-8.41,90.97-11.47c-0.76-4.97,0.76-6.88,0-11.85c-32.23-23.57-64.85-48.29-97.09-71.86
		C574.11,730.55,519.07,748.77,460.21,765.46z"/>
	<path id="path14685_00000021100091076570289540000017775212448200802213_" class="st1" d="M467.47,766.61
		c16.82,26.76,33.64,53.51,50.45,80.27c29.81-15.67,65.2-39.01,92.89-32.78c-1.34-9.22,2.99-14.38,8.4-20.35
		c-44.98-7.77-67.4,18.09-99.38,30.58c-0.64,6.5-1.27,13-1.91,19.49c0.89-6.24,1.02-12.49,1.91-18.73
		c-14.52-22.55-31.72-50.84-46.25-73.39C468.87,753.99,468.36,761.26,467.47,766.61z"/>
	<path id="path14686_00000009561174607373325790000005698450350682816922_" class="st1" d="M615.01,802.54
		c12.36-23.57,22.38-25.24,46.63-28.67c19-2.69,32.32-2.05,51.69-2.95c-1.66,5.61,1.19,13.01,3.74,20.53
		c-18.22,0.76-32.62-0.38-52.75,2.29c-13.38-1.15-25.23,7.26-34.02,16.05C631.06,793.49,621.89,803.56,615.01,802.54z"/>
	<path id="path14687_00000148633186907117725420000003803182320794445978_" class="st1" d="M559.2,737.56
		c19.11,18.47,38.22,36.95,57.33,55.42c-46.31-5.73-71.03,22.36-97.09,31.53c-15.03-23.83-31.02-49.18-46.06-73.01
		c18.86-9.05,31.31-23.95,58.67-26.18C542.67,724.46,550.92,731.57,559.2,737.56z"/>
	<path id="path950_00000141420612728756714210000003727975886433653928_" class="st1" d="M619.29,793.93
		c14.23-24.05,43.6-20.54,93.79-24.32c-26.49-18.02-52.97-36.04-79.46-54.06c-34.69,6.76-58.02-7.57-76.76,19.19L619.29,793.93z"/>
</g>
<line class="st2" x1="354.39" y1="363.99" x2="297.53" y2="369.72"/>
<line class="st2" x1="387.25" y1="318.88" x2="354.39" y2="363.99"/>
<line class="st2" x1="387.25" y1="318.88" x2="297.53" y2="369.72"/>
<line class="st3" x1="243.85" y1="297.53" x2="297.53" y2="369.72"/>
<line class="st4" x1="192.27" y1="335.48" x2="245.99" y2="378.92"/>
<line class="st2" x1="297.53" y1="369.72" x2="379.97" y2="402.99"/>
<line class="st3" x1="296.63" y1="272.51" x2="244.12" y2="297.53"/>
<line class="st2" x1="213.62" y1="419.56" x2="197.84" y2="376.58"/>
<line class="st2" x1="272.51" y1="416.49" x2="295.6" y2="442.1"/>
<line class="st2" x1="296.49" y1="477.75" x2="295.6" y2="442.1"/>
<line class="st2" x1="192.27" y1="335.48" x2="197.84" y2="376.58"/>
<line class="st3" x1="243.85" y1="297.53" x2="299.17" y2="326.37"/>
<line class="st3" x1="345.26" y1="290.67" x2="299.17" y2="326.37"/>
<line class="st4" x1="346.04" y1="520.19" x2="350.6" y2="475.55"/>
<line class="st2" x1="379.97" y1="402.99" x2="350.6" y2="475.55"/>
<line class="st4" x1="325.7" y1="422.75" x2="350.6" y2="475.55"/>
<line class="st2" x1="296.49" y1="477.75" x2="346.04" y2="520.19"/>
<line class="st2" x1="325.7" y1="422.75" x2="296.49" y2="477.75"/>
<line class="st2" x1="272.51" y1="416.49" x2="249.08" y2="450.25"/>
<line class="st2" x1="213.62" y1="419.56" x2="249.08" y2="449.86"/>
<line class="st4" x1="245.99" y1="378.92" x2="272.51" y2="416.49"/>
<line class="st2" x1="192.27" y1="335.48" x2="147.69" y2="401.28"/>
<line class="st2" x1="165.67" y1="291.08" x2="192.27" y2="335.48"/>
<line class="st3" x1="284.93" y1="233.79" x2="296.63" y2="272.51"/>
<line class="st3" x1="344.35" y1="290.67" x2="296.63" y2="272.51"/>
<line class="st2" x1="387.25" y1="318.88" x2="344.35" y2="290.67"/>
<line class="st2" x1="354.39" y1="363.99" x2="345.26" y2="290.67"/>
<line class="st2" x1="325.7" y1="422.75" x2="354.39" y2="363.99"/>
<line class="st2" x1="379.97" y1="402.99" x2="325.7" y2="422.75"/>
<line class="st2" x1="245.99" y1="378.92" x2="227.24" y2="338.71"/>
<line class="st2" x1="243.85" y1="297.53" x2="227.24" y2="338.71"/>
<line class="st2" x1="272.51" y1="416.49" x2="297.53" y2="369.72"/>
<line class="st4" x1="325.7" y1="422.75" x2="272.51" y2="416.49"/>
<line class="st3" x1="325.7" y1="233.79" x2="345.26" y2="290.67"/>
<line class="st2" x1="325.7" y1="422.75" x2="295.6" y2="442.1"/>
<line class="st2" x1="227.24" y1="338.71" x2="192.27" y2="335.48"/>
<line class="st3" x1="297.53" y1="369.72" x2="299.17" y2="326.37"/>
<line class="st2" x1="284.93" y1="233.79" x2="325.7" y2="233.79"/>
<line class="st3" x1="345.26" y1="290.67" x2="284.93" y2="233.79"/>
<line class="st4" x1="243.85" y1="297.53" x2="284.93" y2="233.79"/>
<line class="st3" x1="345.26" y1="290.67" x2="243.85" y2="297.53"/>
<line class="st4" x1="245.99" y1="378.92" x2="244.12" y2="297.53"/>
<line class="st2" x1="297.53" y1="369.72" x2="245.99" y2="378.92"/>
<line class="st2" x1="243.85" y1="297.53" x2="192.27" y2="335.48"/>
<line class="st2" x1="147.69" y1="401.28" x2="197.84" y2="376.58"/>
<line class="st2" x1="213.62" y1="419.56" x2="147.69" y2="401.28"/>
<line class="st2" x1="197.84" y1="376.58" x2="245.99" y2="378.92"/>
<circle class="st3" cx="325.7" cy="422.75" r="17.63"/>
<circle class="st3" cx="325.7" cy="422.75" r="12.51"/>
<circle class="st5" cx="325.7" cy="422.75" r="7.67"/>
<circle class="st3" cx="345.4" cy="291.08" r="17.83"/>
<circle class="st5" cx="345.26" cy="290.67" r="10.46"/>
<circle class="st3" cx="346.04" cy="520.19" r="13.85"/>
<circle class="st5" cx="346.04" cy="520.19" r="9.61"/>
<circle class="st3" cx="346.04" cy="520.19" r="11.97"/>
<circle class="st3" cx="296.5" cy="477.75" r="14.16"/>
<circle class="st3" cx="296.49" cy="477.75" r="12.51"/>
<circle class="st3" cx="296.5" cy="477.75" r="12.51"/>
<circle class="st5" cx="296.49" cy="477.75" r="10.46"/>
<radialGradient id="SVGID_1_" cx="249.0836" cy="449.8557" r="6.2557" gradientUnits="userSpaceOnUse">
	<stop  offset="0.4407" style="stop-color:#000000;stop-opacity:0.5"/>
	<stop  offset="0.7412" style="stop-color:#000000;stop-opacity:0.25"/>
	<stop  offset="1" style="stop-color:#000000;stop-opacity:0"/>
</radialGradient>
<circle class="st6" cx="249.08" cy="449.86" r="6.26"/>
<circle class="st3" cx="249.08" cy="449.86" r="6.26"/>
<circle class="st5" cx="249.08" cy="449.86" r="5.23"/>
<circle class="st3" cx="379.97" cy="402.99" r="16.57"/>
<circle class="st3" cx="379.97" cy="402.99" r="12.51"/>
<circle class="st5" cx="379.97" cy="402.99" r="8.06"/>
<radialGradient id="SVGID_00000005988410692601964550000003397354973207048849_" cx="272.5119" cy="416.4906" r="12.5115" gradientUnits="userSpaceOnUse">
	<stop  offset="0.4407" style="stop-color:#000000;stop-opacity:0.5"/>
	<stop  offset="0.7412" style="stop-color:#000000;stop-opacity:0.25"/>
	<stop  offset="1" style="stop-color:#000000;stop-opacity:0"/>
</radialGradient>
<circle style="fill:url(#SVGID_00000005988410692601964550000003397354973207048849_);stroke:#000000;stroke-width:0.25;stroke-miterlimit:10;" cx="272.51" cy="416.49" r="12.51"/>
<circle class="st3" cx="272.51" cy="416.49" r="12.51"/>
<circle class="st5" cx="272.51" cy="416.49" r="10.46"/>
<circle class="st3" cx="297.53" cy="369.72" r="12.51"/>
<path class="st5" d="M303.62,369.72c0,3.36-2.73,6.09-6.09,6.09s-6.09-2.73-6.09-6.09s2.73-6.09,6.09-6.09
	S303.62,366.36,303.62,369.72z"/>
<circle class="st3" cx="227.24" cy="338.71" r="12.51"/>
<circle class="st3" cx="227.24" cy="338.71" r="6.26"/>
<circle class="st5" cx="227.24" cy="338.71" r="5.23"/>
<circle class="st5" cx="296.63" cy="272.51" r="5.23"/>
<circle class="st5" cx="197.84" cy="376.58" r="5.23"/>
<circle class="st5" cx="295.6" cy="442.1" r="5.23"/>
<circle class="st3" cx="325.7" cy="233.79" r="9.78"/>
<circle class="st3" cx="325.7" cy="233.79" r="6.26"/>
<circle class="st5" cx="325.7" cy="233.79" r="5.23"/>
<circle class="st3" cx="350.6" cy="475.55" r="11"/>
<circle class="st3" cx="350.6" cy="475.55" r="7.7"/>
<circle class="st5" cx="350.6" cy="475.55" r="6.89"/>
<circle class="st3" cx="387.25" cy="318.88" r="13.26"/>
<circle class="st3" cx="387.25" cy="318.88" r="13.56"/>
<path class="st5" d="M395.7,318.88c0,4.67-3.78,8.45-8.45,8.45c-4.67,0-8.45-3.78-8.45-8.45c0-4.67,3.78-8.45,8.45-8.45
	C391.92,310.43,395.7,314.22,395.7,318.88z"/>
<circle class="st3" cx="213.62" cy="419.62" r="12.51"/>
<circle class="st3" cx="213.62" cy="419.56" r="12.51"/>
<path class="st5" d="M218.17,419.56c0,2.51-2.04,4.55-4.55,4.55c-2.51,0-4.55-2.04-4.55-4.55s2.04-4.55,4.55-4.55
	C216.14,415.01,218.17,417.05,218.17,419.56z"/>
<circle class="st3" cx="244.12" cy="297.53" r="25.02"/>
<circle class="st3" cx="244.12" cy="297.53" r="15.83"/>
<circle class="st8" cx="244.12" cy="297.53" r="13.23"/>
<circle class="st3" cx="245.99" cy="378.92" r="17.69"/>
<circle class="st3" cx="245.99" cy="378.92" r="12.51"/>
<circle class="st5" cx="245.99" cy="378.92" r="10.46"/>
<path class="st3" d="M263.69,378.92c0,9.77-7.92,17.69-17.69,17.69s-17.69-7.92-17.69-17.69c0-9.77,7.92-17.69,17.69-17.69
	S263.69,369.15,263.69,378.92z"/>
<circle class="st3" cx="192.27" cy="335.48" r="12.51"/>
<circle class="st3" cx="192.27" cy="335.48" r="12.51"/>
<circle class="st5" cx="192.27" cy="335.48" r="10.46"/>
<radialGradient id="SVGID_00000026149630773219781730000008537267832298456477_" cx="165.6682" cy="290.3714" r="6.2557" gradientUnits="userSpaceOnUse">
	<stop  offset="0.4407" style="stop-color:#000000;stop-opacity:0.5"/>
	<stop  offset="0.7412" style="stop-color:#000000;stop-opacity:0.25"/>
	<stop  offset="1" style="stop-color:#000000;stop-opacity:0"/>
</radialGradient>
<circle style="fill:url(#SVGID_00000026149630773219781730000008537267832298456477_);stroke:#000000;stroke-width:0.25;stroke-miterlimit:10;" cx="165.67" cy="290.37" r="6.26"/>
<circle class="st3" cx="165.67" cy="290.37" r="6.26"/>
<circle class="st5" cx="165.67" cy="290.37" r="5.23"/>
<circle class="st3" cx="354.39" cy="363.99" r="10.89"/>
<circle class="st3" cx="354.39" cy="363.99" r="12.51"/>
<circle class="st5" cx="354.39" cy="363.99" r="5.73"/>
<circle class="st3" cx="284.93" cy="233.79" r="17.4"/>
<circle class="st3" cx="284.93" cy="233.79" r="12.51"/>
<circle class="st5" cx="284.93" cy="233.79" r="10.46"/>
<circle class="st3" cx="147.69" cy="401.28" r="25.02"/>
<circle class="st3" cx="147.69" cy="401.28" r="12.51"/>
<circle class="st5" cx="147.69" cy="401.28" r="10.46"/>
<circle class="st5" cx="299.17" cy="326.37" r="5.23"/>
<rect x="240.41" y="288.74" transform="matrix(0.9978 -0.0663 0.0663 0.9978 -19.2119 16.6472)" class="st5" width="1.79" height="18.3"/>
<path d="M244.56,302.55l-0.08-0.04c0.28,0.09,0.56,0.21,0.82,0.35c-0.51-0.53-1.14-1.06-1.85-0.54c0.07-0.38-0.47-0.75-0.51-0.66
	c-0.14,0.02-0.29,0.04-0.43,0.04c0.1,0,0.19,0,0.29,0c-0.1,0-0.19,0-0.29,0c-0.22,0-0.44-0.02-0.66-0.07
	c-0.06-0.01-0.11-0.02-0.16-0.04l-0.14-0.04c-0.04-0.01-0.07-0.02-0.11-0.03c-0.13-0.06-0.21-0.15-0.2-0.23c0-0.02,0-0.04,0-0.07
	c0-0.02,0.01-0.04,0.02-0.05c0.02-0.02,0.05-0.04,0.08-0.05c0.06-0.02,0.12-0.03,0.18-0.03c0.04,0,0.09,0,0.13,0.01
	c0.02,0,0.03,0.01,0.05,0.02c-0.03-0.01-0.06-0.02-0.09-0.03c-0.05-0.02-0.09-0.06-0.11-0.11c-0.02-0.04-0.02-0.09-0.01-0.13
	c-0.05-0.05-0.12-0.08-0.18-0.11h0.07c-0.03-0.06-0.02-0.13,0.02-0.18c0.08-0.06,0.15-0.13,0.22-0.21c0.02,0.09,0.12,0.05,0.21,0.01
	l-0.06-0.03c0.09-0.04,0.17-0.09,0.25-0.13c0.09-0.05,0.18-0.11,0.26-0.16c0.17-0.11,0.34-0.22,0.49-0.3c0.04-0.02,0.08-0.02,0.12,0
	l0.26-0.22c0.03,0.11,0.29-0.05,0.19,0.09c0.15-0.24,0.41-0.3,0.55-0.53c0.18-0.11,0.37-0.22,0.55-0.34
	c0.18-0.12,0.35-0.24,0.53-0.38c0.35-0.27,0.7-0.55,1.02-0.85l-0.04-0.03c0.22-0.22,0.35-0.54,0.7-0.67
	c0.15-0.26,0.44-0.52,0.42-0.77c0.25-0.18,0.3-0.34,0.55-0.55c-0.02-0.01-0.04-0.04-0.03-0.06c0,0,0-0.01,0-0.01
	c0.02-0.04,0.04-0.07,0.07-0.09c0.02-0.02,0.03-0.03,0.04-0.05c0.01-0.01,0.01-0.02,0.02-0.03c0-0.02-0.01-0.03-0.05-0.04
	c-0.09-0.02-0.18,0-0.26,0.03c-0.06,0.03-0.13,0.05-0.2,0.03l0.02,0.03c-0.77,0.25-1.52,0.56-2.24,0.93
	c-0.21,0.18-0.44,0.33-0.69,0.47c-0.24,0.14-0.49,0.27-0.73,0.44l-0.37,0.26c-0.12,0.09-0.24,0.18-0.36,0.26
	c-0.24,0.18-0.46,0.36-0.66,0.52c-0.09,0.09-0.21,0.05-0.33,0.05c-0.19,0.14-0.42,0.27-0.65,0.41c-0.12,0.07-0.25,0.15-0.37,0.22
	c-0.12,0.08-0.24,0.15-0.36,0.24c0.01-0.01,0.02-0.01,0.03-0.01c-0.36,0.23-0.76,0.32-1.15,0.57c0.03,0.02-0.03,0.05-0.04,0.08
	c-0.05-0.01-0.22,0.07-0.4,0.22c-0.19,0.15-0.35,0.33-0.47,0.54c-0.09,0.15-0.17,0.31-0.23,0.48c-0.03,0.1-0.06,0.2-0.1,0.29v0.1
	c-0.03,0.17-0.01,0.34,0.05,0.5c0.02,0.06,0.05,0.13,0.08,0.19l0.04,0.08c0.03,0.03,0.06,0.05,0.09,0.08
	c0.25,0.23,0.53,0.42,0.82,0.59c0.19,0.03,0.38,0.05,0.57,0.05c0.02,0.05,0.08,0.05,0.14,0.05c0.07-0.01,0.14,0,0.2,0.02
	c0.07,0.15,0.19,0.26,0.34,0.31c0.09,0.02,0.12-0.03,0.05-0.11c0.09,0.02,0.18,0.04,0.26,0.07l0.12,0.04l0.11,0.04
	c0.1,0.03,0.2,0.07,0.3,0.1c0.09,0.03,0.19,0.01,0.28,0.02s0.11,0.06,0.12,0.14c0.2,0.02,0.12,0.08,0.31,0.17
	c0.01,0.12,0.55,0.01,0.6,0.06h-0.04c0.22,0.1,0.31,0.34,0.53,0.43c0.6,0.29,1.31,0.44,1.88,0.67c0.04-0.1-0.14-0.02-0.1-0.16
	c0.34,0.13,0.64,0.38,0.98,0.51c0.05,0.05,0.1,0.11,0.13,0.17c0.1,0.08,0.08-0.03,0.16,0.01l-0.02,0.1
	c0.15-0.04,0.14,0.16,0.26,0.16c0.02-0.04,0.06-0.03,0.1-0.01c-0.03,0.1,0.12,0.03,0.09,0.12v-0.01c0.02,0.01,0.04,0.01,0.07,0.04
	c0.03-0.01,0.17-0.05,0.33-0.09c0.04-0.01,0.08-0.02,0.12-0.03c0.01,0,0.02,0,0.03,0h0.03h0.03h0.03h0.01h0.01
	c0.03,0.01,0.05,0.01,0.08,0.02c0.08,0.01,0.16,0.01,0.23,0.01c0.28-0.02,0.54-0.13,0.74-0.33c0.11-0.11,0.2-0.24,0.25-0.39
	c0.04-0.11,0.07-0.22,0.08-0.33c0.01-0.07,0.01-0.15,0-0.22c0-0.03-0.01-0.06-0.01-0.08l-0.01-0.05c-0.02-0.08-0.05-0.15-0.08-0.22
	c-0.11-0.23-0.29-0.41-0.52-0.53l-0.04-0.02l0,0l-0.04-0.01h-0.02h-0.01c-0.05,0-0.1,0.01-0.14,0.02l-0.02-0.02
	c-0.07-0.02-0.12,0.04-0.09,0.08l-0.08-0.03h0.01l-0.08-0.03c-0.01-0.04,0-0.08,0.03-0.1c-0.05,0.02-0.11,0.02-0.15-0.01
	c0.12,0.12,0.23,0.26,0.32,0.4c-0.07,0.01-0.15-0.07-0.21-0.08c-0.07-0.11-0.16-0.2-0.26-0.28c-0.03,0-0.08,0.1-0.12,0.04
	c0-0.09-0.06-0.02-0.09-0.09c0.07-0.02,0.11,0.01,0.16,0.04c0.02-0.09-0.11-0.11-0.14-0.15c-0.03,0.02-0.12-0.04-0.19-0.04
	c0.06-0.08-0.03-0.07-0.05-0.13c-0.04-0.03-0.08,0-0.07,0.04c-0.05,0.09,0.15,0.12,0.06,0.2c0-0.05-0.09-0.07-0.14-0.08
	c-0.02,0.05,0.02,0.05-0.03,0.09c-0.05-0.03-0.12,0.02-0.13-0.05c0.01-0.01,0.03,0.01,0.05,0.01c-0.06-0.03,0.47-0.22,0.38-0.22
	c0.01,0.05-0.48,0.18-0.44,0.2c0.03,0.04-0.06,0.09-0.03,0.12l0.07-0.05c0.04,0.05,0.05,0.12,0.01,0.17
	c-0.09-0.04,0.39-0.26,0.3-0.24l0.02,0.04c-0.05,0.02-0.15,0.02-0.16-0.05c-0.02,0.05-0.07,0.05-0.12,0.06l0-0.02
	c-0.05,0.01-0.1-0.02-0.1,0.06c0.24,0.07-0.34,0.47-0.12,0.58c-0.06-0.15,0.07-0.11,0.18-0.09c0,0.07,0.03,0.13,0.08,0.17
	c0.06,0.01,0.05-0.03,0.07-0.05c0.03,0.04,0.08,0.08,0.05,0.14c0.07-0.06,0.06,0.07,0.13,0.07c0.07,0,0.01-0.03,0.06-0.05
	c0.07,0.03,0.18,0.08,0.23,0.12c0,0.06,0.04,0.19-0.04,0.26c-0.11-0.05,0.09-0.13-0.03-0.15c0.01,0.15-0.12,0-0.18,0.09
	c0.03,0.07,0.09,0.11,0.17,0.11l-0.01-0.02c0.06,0,0.19,0.02,0.22,0.11c-0.03,0.04-0.02,0.08-0.06,0.08l0.07,0.04
	c0.02-0.01,0.03-0.02,0.01-0.04c0.05-0.02,0.08,0.01,0.09,0.05c0,0,0,0.01,0.02,0.01h0.01l0,0l0.03-0.07l0.02-0.04
	c0-0.01,0-0.01,0-0.02c0-0.03,0-0.05,0.03-0.07c0.01-0.01,0.02-0.01,0.03-0.01c-0.01,0-0.03-0.01-0.03-0.02c0,0,0,0,0,0
	c0-0.02,0.01-0.04,0.03-0.05l0.02-0.01l0.01-0.04l0.02-0.08l0.01-0.03l0,0c0,0,0,0-0.01,0l-0.16,0.03
	c-0.07,0.02-0.15,0.03-0.23,0.03c-0.06-0.02-0.05-0.09-0.12-0.06c-0.02,0.04,0.6,0.01,0.51,0c-0.02-0.06-0.72,0.03-0.72-0.07
	c-0.04-0.01-0.1-0.02-0.1,0.03c-0.06-0.05,0.05-0.09,0.02-0.15c0,0.01,0,0.03-0.02,0.02l-0.03-0.08c-0.14,0.04-0.27-0.11-0.41-0.05
	c0.06-0.06,0.13-0.11,0.21-0.15v0.03c0.02-0.01,0.08-0.01,0.1-0.06c-0.06-0.05-0.14-0.07-0.21-0.04c-0.01-0.02-0.02-0.04-0.03-0.05
	c0,0.01,0,0.01,0,0.02c-0.01-0.04-0.01-0.04,0-0.06c0,0,0-0.01,0.01-0.01c0-0.16-0.31,0-0.41-0.12c-0.04,0.01-0.01,0.02-0.07,0.03
	c-0.1-0.09-0.2-0.18-0.32-0.25c-0.06,0.05-0.08,0.07-0.04,0.15l-0.1-0.06c0.15-0.13-0.14-0.22,0.02-0.35
	c-0.03-0.05-0.09-0.08-0.15-0.07c-0.02,0.04-0.05,0.1-0.12,0.08c-0.05-0.05-0.09-0.09-0.13-0.14c0-0.06,0.04-0.07,0.05-0.12
	c-0.15,0.03-0.07-0.15-0.2-0.19c-0.08-0.01-0.24-0.06-0.27,0.04C244.5,302.7,244.52,302.63,244.56,302.55z"/>
<path class="st8" d="M321.02,417.93v3.71l6.18,6.18l3.71-3.71l-6.18-6.18H321.02z M323.49,419.16c0.68,0,1.24,0.56,1.24,1.24
	c0,0.68-0.56,1.24-1.24,1.24s-1.24-0.56-1.24-1.24C322.26,419.72,322.82,419.16,323.49,419.16z"/>
<path class="st10" d="M250.57,372.88l-4.58,4.53l-1.51-1.51l-4.53,4.58l1.51,1.51l3.02-3.07l1.51,1.51l6.05-6.05L250.57,372.88z
	 M239.95,383.46v1.51h12.09v-1.51H239.95z"/>
<path class="st10" d="M297.86,365.13l-1.02,3.05h-3.05l2.54,2.03l-1.02,3.05l2.54-2.03l2.54,2.03l-1.02-3.05l2.54-2.03h-3.05
	L297.86,365.13z"/>
<path class="st10" d="M341.24,515.02c-0.37,0-0.68,0.3-0.68,0.68s0.3,0.68,0.68,0.68c0.37,0,0.68-0.3,0.68-0.68
	S341.62,515.02,341.24,515.02z M343.27,515.02v1.35h8.11v-1.35H343.27z M341.24,517.72c-0.37,0-0.68,0.3-0.68,0.68
	s0.3,0.68,0.68,0.68c0.37,0,0.68-0.3,0.68-0.68S341.62,517.72,341.24,517.72z M343.27,517.72v1.35h8.11v-1.35H343.27z
	 M341.24,520.42c-0.37,0-0.68,0.3-0.68,0.68s0.3,0.68,0.68,0.68c0.37,0,0.68-0.3,0.68-0.68S341.62,520.42,341.24,520.42z
	 M343.27,520.42v1.35h8.11v-1.35H343.27z M341.24,523.12c-0.37,0-0.68,0.3-0.68,0.68s0.3,0.68,0.68,0.68c0.37,0,0.68-0.3,0.68-0.68
	S341.62,523.12,341.24,523.12z M343.27,523.12v1.35h8.11v-1.35H343.27z"/>
<path class="st10" d="M285.35,227.72c-2.05,0-3.84,1.45-4.23,3.38c-1.86,0-3.38,1.52-3.38,3.38c0,1.86,1.52,3.38,3.38,3.38h7.61
	c1.4,0,2.54-1.13,2.54-2.54c0-1.1-0.71-2.18-1.69-2.54v-0.85C289.58,229.62,287.68,227.72,285.35,227.72z"/>
<path class="st10" d="M188.67,329.73l-0.27,0.04c-0.56,0.11-1.01,0.56-1.12,1.12l-0.04,0.27v7.91c0,1.19,0.96,2.16,2.16,2.16h7.91
	v-1.44h-7.91c-0.4,0-0.72-0.32-0.72-0.72s0.32-0.72,0.72-0.72h7.91v-7.91c0-0.4-0.32-0.72-0.72-0.72h-0.72v4.31l-1.44-1.44
	l-1.44,1.44v-4.31H188.67z"/>
<g>
	<g>
		<path class="st10" d="M349.78,473.88c0.03-0.02,0.84-0.41,0.87-0.43c0.19-0.09,0.43-0.14,0.56-0.14c1.08,0,1.74,0.91,1.74,1.88
			c0,1.5-1.18,2.44-2.47,2.68c-0.3-0.01-0.56-0.1-0.7-0.18v1.33c0,0.73,0.08,0.79,0.85,0.86v0.28h-2.34v-0.28
			c0.64-0.07,0.72-0.12,0.72-0.78v-7.12c0-0.61-0.03-0.67-0.66-0.72V471c0.45-0.06,1.07-0.21,1.45-0.33
			c-0.01,0.38-0.01,0.78-0.01,1.17V473.88z M349.78,477c0.23,0.23,0.61,0.38,0.94,0.38c0.86,0,1.41-0.72,1.41-1.82
			c0-1.06-0.61-1.66-1.34-1.66c-0.3,0-0.73,0.13-1,0.31V477z"/>
	</g>
</g>
<g>
	<g>
		<path class="st10" d="M277.11,418.95c-1.09,1.36-2.28,1.65-2.74,1.65c-1.24,0-2.19-0.61-2.74-1.48l-0.63,0.48
			c-0.68,0.51-1.48,1-1.95,1c-1.26,0-2.09-1.05-2.09-2.06c0-0.88,0.42-1.38,1.36-1.72c0.94-0.31,2.18-0.75,2.74-1.12v-0.41
			c0-1.05-0.44-1.79-1.5-1.79c-0.32,0-0.59,0.12-0.78,0.34c-0.2,0.22-0.34,0.59-0.49,1.1c-0.07,0.27-0.24,0.39-0.49,0.39
			c-0.31,0-0.75-0.34-0.75-0.75c0-0.24,0.2-0.46,0.54-0.7c0.48-0.34,1.55-0.97,2.53-1.17c0.88,0,1.56,0.41,1.96,1.24
			c0.7-0.75,1.53-1.24,2.55-1.26c1.43-0.02,2.57,1.29,2.57,2.65c0,0.36-0.07,0.49-0.25,0.54c-0.41,0.07-2.6,0.24-4.62,0.31
			c0.02,2.28,1.34,3.21,2.55,3.21c0.7,0,1.34-0.29,1.97-0.87L277.11,418.95z M269.68,419.55c0.53,0,1.12-0.25,1.7-0.97
			c-0.27-0.54-0.34-1.43-0.34-2.28c-0.37,0.17-0.97,0.48-1.58,0.73c-0.71,0.29-1.04,0.63-1.04,1.22
			C268.42,419.11,269.05,419.55,269.68,419.55z M274.2,413.38c-0.8,0-1.56,0.7-1.82,2.11c0.95,0,1.92,0,2.92-0.05
			c0.31,0,0.41-0.08,0.41-0.34C275.73,414.19,275.14,413.38,274.2,413.38z"/>
	</g>
</g>
</svg>
